<?xml version="1.0" standalone="no"?>
<!DOCTYPE svg PUBLIC "-//W3C//DTD SVG 20010904//EN"
 "http://www.w3.org/TR/2001/REC-SVG-20010904/DTD/svg10.dtd">
<svg version="1.0" xmlns="http://www.w3.org/2000/svg"
 width="337.000000pt" height="337.000000pt" viewBox="0 0 337.000000 337.000000"
 preserveAspectRatio="xMidYMid meet">
<metadata>
Created by potrace 1.14, written by Peter Selinger 2001-2017
</metadata>
<g transform="translate(0.000000,337.000000) scale(0.100000,-0.100000)"
fill="#000000" stroke="none">
<path d="M1630 3364 c-62 -23 -93 -41 -113 -68 -35 -46 -57 -96 -57 -128 l0
-28 -182 0 c-154 0 -188 -3 -217 -18 -48 -24 -70 -59 -78 -120 l-6 -52 -182 0
c-252 0 -314 -21 -361 -125 l-24 -52 2 -1324 3 -1324 28 -47 c50 -86 -70 -78
1238 -78 1152 0 1167 0 1192 20 14 11 37 43 51 72 l26 52 0 1315 0 1316 -24
51 c-48 103 -110 124 -363 124 l-183 0 0 38 c-1 47 -27 99 -63 126 -26 19 -44
21 -223 24 l-194 3 0 30 c0 57 -56 141 -114 171 -39 20 -128 32 -156 22z m131
-87 c124 -83 67 -277 -81 -277 -113 0 -184 118 -132 220 25 50 75 80 132 80
32 0 58 -7 81 -23z m-790 -514 c3 -23 14 -51 24 -63 18 -20 27 -20 686 -20
l668 0 20 26 c13 17 21 41 21 66 l0 39 186 -3 186 -3 24 -28 24 -28 0 -1289 0
-1289 -24 -28 -24 -28 -1082 0 -1082 0 -24 28 -24 28 0 1287 c0 1166 2 1290
16 1310 9 13 26 27 38 32 11 5 98 8 191 7 l170 -2 6 -42z"/>
<path d="M884 2261 c-35 -22 -49 -58 -35 -94 18 -46 47 -57 154 -57 91 0 100
2 122 25 37 36 34 86 -6 119 -28 24 -39 26 -117 26 -68 0 -94 -4 -118 -19z"/>
<path d="M1380 2267 c-54 -27 -61 -99 -13 -137 25 -19 42 -20 558 -20 516 0
533 1 558 20 49 38 43 106 -12 135 -26 13 -100 15 -548 15 -397 0 -524 -3
-543 -13z"/>
<path d="M866 1849 c-14 -17 -26 -39 -26 -49 0 -10 12 -32 26 -49 l26 -31 107
0 c99 0 109 2 129 23 28 30 28 76 1 111 -20 25 -24 26 -129 26 l-108 0 -26
-31z"/>
<path d="M1372 1873 c-7 -3 -19 -18 -28 -35 -12 -24 -13 -36 -4 -64 6 -19 20
-39 30 -44 12 -6 221 -10 558 -10 l540 0 26 31 c33 38 33 60 0 98 l-26 31
-541 -1 c-298 0 -548 -3 -555 -6z"/>
<path d="M877 1470 c-33 -26 -41 -63 -23 -99 19 -36 61 -51 140 -51 74 0 124
13 142 37 22 29 17 81 -11 108 -22 23 -31 25 -123 25 -84 0 -103 -3 -125 -20z"/>
<path d="M1367 1470 c-52 -41 -40 -115 23 -137 25 -9 176 -12 538 -12 418 -1
509 1 537 14 60 24 69 95 18 135 -25 19 -42 20 -558 20 -516 0 -533 -1 -558
-20z"/>
<path d="M875 1077 c-40 -34 -41 -90 -1 -123 25 -22 36 -24 127 -24 93 0 102
2 124 25 31 30 33 83 6 116 -18 22 -28 24 -124 27 -98 4 -105 2 -132 -21z"/>
<path d="M1364 1076 c-21 -18 -28 -32 -28 -61 0 -29 7 -43 28 -61 l27 -24 534
0 534 0 27 24 c39 33 39 89 0 122 l-27 24 -534 0 -534 0 -27 -24z"/>
<path d="M882 693 c-15 -6 -42 -56 -42 -78 0 -9 13 -30 29 -46 29 -28 32 -29
131 -29 94 0 103 2 125 25 33 32 34 83 2 113 -21 20 -34 22 -128 21 -57 0
-110 -3 -117 -6z"/>
<path d="M1372 693 c-21 -8 -44 -62 -36 -86 3 -12 16 -32 27 -44 l20 -23 540
0 539 0 29 29 c16 16 29 37 29 46 0 24 -27 72 -45 79 -20 7 -1084 7 -1103 -1z"/>
</g>
</svg>
